<?xml version="1.0" encoding="utf-8"?>
<!-- Generator: Adobe Illustrator 26.0.1, SVG Export Plug-In . SVG Version: 6.00 Build 0)  -->
<svg version="1.1" id="Layer_1" xmlns="http://www.w3.org/2000/svg" xmlns:xlink="http://www.w3.org/1999/xlink" x="0px" y="0px"
	 viewBox="0 0 700 768" style="enable-background:new 0 0 700 768;" xml:space="preserve">
<style type="text/css">
	.st0{fill:url(#SVGID_1_);}
	.st1{fill:url(#SVGID_00000048501444882763912470000015176597711809309585_);}
	.st2{fill:url(#SVGID_00000111896265786694672710000016973112385776096167_);}
	.st3{fill:url(#SVGID_00000027603658660121420150000008093911032480151219_);}
	.st4{fill:url(#SVGID_00000150806047314456762510000013584642054928302732_);}
	.st5{fill:url(#SVGID_00000062912078221157716190000015298635798987754129_);}
	.st6{fill:url(#SVGID_00000014636629097651920590000009715216998952100230_);}
	.st7{fill:url(#SVGID_00000183235193864374735720000012919263182455192450_);}
	.st8{fill:#333333;}
</style>
<linearGradient id="SVGID_1_" gradientUnits="userSpaceOnUse" x1="331.4186" y1="122.2267" x2="331.4186" y2="301.5327">
	<stop  offset="0.3263" style="stop-color:#4C67D9"/>
	<stop  offset="1" style="stop-color:#A66BB3"/>
</linearGradient>
<polygon class="st0" points="417.87,122.23 244.96,122.23 244.96,154.42 315.32,154.42 315.32,301.53 347.51,301.53 347.51,154.42 
	417.87,154.42 "/>
<linearGradient id="SVGID_00000026164445567233139080000001412837662532933008_" gradientUnits="userSpaceOnUse" x1="435.2653" y1="203.1702" x2="291.6018" y2="346.8336">
	<stop  offset="0" style="stop-color:#4C67D9"/>
	<stop  offset="1" style="stop-color:#A66BB3"/>
</linearGradient>
<path style="fill:url(#SVGID_00000026164445567233139080000001412837662532933008_);" d="M360.1,164.32v153.66
	c0,14.96-5.41,29.53-15.62,40.47c-4.03,4.32-8.42,7.75-13.07,10.55c4.32,10.14,8.62,20.29,12.83,30.47
	c20.12-10.65,39.34-25.79,47.33-47.12c5.15-13.75,5.17-28.8,5.12-43.48c-0.15-48.18-0.08-96.38-0.27-144.56H360.1z"/>
<g>
	<g>
		
			<linearGradient id="SVGID_00000119839759455224757640000014453317075424294840_" gradientUnits="userSpaceOnUse" x1="180.5962" y1="501.1182" x2="511.0498" y2="501.1182">
			<stop  offset="0.3263" style="stop-color:#4C67D9"/>
			<stop  offset="1" style="stop-color:#A66BB3"/>
		</linearGradient>
		<path style="fill:url(#SVGID_00000119839759455224757640000014453317075424294840_);" d="M243.97,458.15h-23.29v81.34h-16.65
			v-81.34H180.6v-15.67h63.37V458.15z"/>
		
			<linearGradient id="SVGID_00000029019344915657477460000000780579959859269766_" gradientUnits="userSpaceOnUse" x1="180.5962" y1="501.1182" x2="511.0498" y2="501.1182">
			<stop  offset="0.3263" style="stop-color:#4C67D9"/>
			<stop  offset="1" style="stop-color:#A66BB3"/>
		</linearGradient>
		<path style="fill:url(#SVGID_00000029019344915657477460000000780579959859269766_);" d="M304.19,490.47v49.02h-13.38v-5.25
			c-3.61,4.12-8.99,7.03-16.46,7.03c-15.16,0-23.53-10.14-23.53-23.15c0-13.01,8.85-23.15,24.77-23.15c5.5,0,9.87,1.59,13.24,4.08
			v-8.38c0-7.5-3.64-12.47-10.38-12.47c-6.25,0-10.38,4.01-10.38,10.56V490h-15.3v-1.37c0-14.57,10.16-24.97,25.68-24.97
			C294.57,463.66,304.19,475.33,304.19,490.47z M289.45,518.12c0-5.68-3.75-10.65-11.46-10.65c-7.38,0-11.67,4.97-11.67,10.65
			c0,5.68,4.29,10.59,11.67,10.59C285.7,528.71,289.45,523.8,289.45,518.12z"/>
		
			<linearGradient id="SVGID_00000029757523765765441080000000368307980883245953_" gradientUnits="userSpaceOnUse" x1="180.5962" y1="501.1182" x2="511.0498" y2="501.1182">
			<stop  offset="0.3263" style="stop-color:#4C67D9"/>
			<stop  offset="1" style="stop-color:#A66BB3"/>
		</linearGradient>
		<path style="fill:url(#SVGID_00000029757523765765441080000000368307980883245953_);" d="M319.31,465.44h15.3v77.08
			c0,11.65-7.84,20.29-20.34,20.29h-5.37v-13.83h3.31c4.15,0,7.11-3,7.11-7.32V465.44z M335.49,455.53h-16.2v-16.1h16.2V455.53z"/>
		
			<linearGradient id="SVGID_00000027562706947686301640000003661631189086039944_" gradientUnits="userSpaceOnUse" x1="180.5962" y1="501.1182" x2="511.0498" y2="501.1182">
			<stop  offset="0.3263" style="stop-color:#4C67D9"/>
			<stop  offset="1" style="stop-color:#A66BB3"/>
		</linearGradient>
		<path style="fill:url(#SVGID_00000027562706947686301640000003661631189086039944_);" d="M403.14,514.99v0.78
			c0,14.45-10.15,25.5-27.24,25.5c-17.01,0-27.17-11.58-27.17-26.78v-24.05c0-15.1,10.02-26.78,26.82-26.78
			c17.09,0,27.05,11.67,27.05,26.81v16.95h-38.56v6.79c0,7.16,4.15,12.52,11.87,12.52c7.64,0,12.02-4.83,12.02-11.18v-0.56H403.14z
			 M364.03,490.71v3.26h23.26v-3.23c0-7.1-4.03-12.55-11.74-12.55C368.04,478.19,364.03,483.65,364.03,490.71z"/>
		
			<linearGradient id="SVGID_00000086656883507860621390000008864934492654183358_" gradientUnits="userSpaceOnUse" x1="180.5962" y1="501.1182" x2="511.0498" y2="501.1182">
			<stop  offset="0.3263" style="stop-color:#4C67D9"/>
			<stop  offset="1" style="stop-color:#A66BB3"/>
		</linearGradient>
		<path style="fill:url(#SVGID_00000086656883507860621390000008864934492654183358_);" d="M450.95,463.66v16.18h-4.57
			c-8.87,0-14.86,5.53-14.86,15.52v44.12h-15.3v-74.05h13.97v8.41c3.65-6.29,9.65-10.19,18.22-10.19H450.95z"/>
		
			<linearGradient id="SVGID_00000068644615624758766130000003270570660577308078_" gradientUnits="userSpaceOnUse" x1="180.5962" y1="501.1182" x2="511.0498" y2="501.1182">
			<stop  offset="0.3263" style="stop-color:#4C67D9"/>
			<stop  offset="1" style="stop-color:#A66BB3"/>
		</linearGradient>
		<path style="fill:url(#SVGID_00000068644615624758766130000003270570660577308078_);" d="M511.05,490.47v49.02h-13.38v-5.25
			c-3.61,4.12-8.99,7.03-16.46,7.03c-15.16,0-23.53-10.14-23.53-23.15c0-13.01,8.85-23.15,24.77-23.15c5.5,0,9.87,1.59,13.24,4.08
			v-8.38c0-7.5-3.64-12.47-10.38-12.47c-6.25,0-10.38,4.01-10.38,10.56V490h-15.3v-1.37c0-14.57,10.16-24.97,25.68-24.97
			C501.43,463.66,511.05,475.33,511.05,490.47z M496.31,518.12c0-5.68-3.75-10.65-11.46-10.65c-7.38,0-11.67,4.97-11.67,10.65
			c0,5.68,4.29,10.59,11.67,10.59C492.56,528.71,496.31,523.8,496.31,518.12z"/>
	</g>
</g>
<g>
	<g>
		<path class="st8" d="M162.59,628.06l1.47-2.08c1.21,0.9,2.45,1.57,3.73,2c1.28,0.43,2.71,0.65,4.3,0.65
			c2.01,0,3.67-0.55,4.97-1.65c1.3-1.1,1.95-2.62,1.95-4.56c0-1.58-0.52-2.87-1.55-3.88c-1.04-1.01-2.72-1.92-5.05-2.72
			c-2.97-1.02-5.14-2.21-6.51-3.55c-1.36-1.35-2.04-3.07-2.04-5.17c0-2.54,0.87-4.57,2.6-6.09c1.74-1.52,4.04-2.29,6.91-2.29
			c1.28,0,2.54,0.17,3.78,0.51c1.24,0.34,2.49,0.89,3.74,1.63l-1.33,2.14c-1.02-0.61-2.05-1.06-3.08-1.36
			c-1.04-0.29-2.17-0.44-3.39-0.44c-1.91,0-3.47,0.5-4.67,1.5s-1.8,2.37-1.8,4.1c0,1.49,0.54,2.72,1.62,3.69
			c1.08,0.97,2.84,1.88,5.29,2.75c2.93,0.99,5.04,2.17,6.32,3.54c1.28,1.37,1.92,3.15,1.92,5.34c0,2.7-0.87,4.88-2.61,6.54
			c-1.74,1.66-4.14,2.49-7.19,2.49c-1.79,0-3.45-0.25-4.97-0.74C165.47,629.9,164,629.12,162.59,628.06z"/>
		<path class="st8" d="M197.26,631.16c-3.37,0-6.04-1.09-8.01-3.28c-1.97-2.19-2.95-5.05-2.95-8.6c0-3.82,1.02-6.81,3.07-8.96
			s4.79-3.23,8.24-3.25c3.32,0,5.94,1.06,7.85,3.19s2.87,5.07,2.87,8.84c0,3.6-1,6.51-2.99,8.73
			C203.35,630.05,200.66,631.16,197.26,631.16z M197.41,628.82c2.62,0,4.64-0.85,6.05-2.56s2.11-4.08,2.11-7.13
			c0-3.13-0.7-5.54-2.11-7.22s-3.41-2.52-6-2.52c-2.58,0-4.63,0.88-6.16,2.62s-2.29,4.17-2.29,7.26c0,2.9,0.75,5.22,2.26,6.95
			C192.78,627.96,194.83,628.82,197.41,628.82z"/>
		<path class="st8" d="M224.21,599.64c-0.35-0.1-0.68-0.18-1-0.23c-0.31-0.05-0.62-0.08-0.93-0.08c-1.37,0-2.38,0.38-3.02,1.13
			s-0.96,1.9-0.96,3.45v3.74h5.67v2.32h-5.67v20.63h-2.65v-20.63h-3.96v-2.32h3.96v-3.87c0-2.22,0.6-3.9,1.82-5.04
			c1.21-1.14,2.84-1.72,4.88-1.72c0.39,0,0.79,0.03,1.19,0.09c0.4,0.06,0.85,0.17,1.35,0.33L224.21,599.64z"/>
		<path class="st8" d="M237.88,630.2c-0.54,0.29-1.1,0.5-1.68,0.63c-0.58,0.13-1.25,0.2-1.99,0.2c-1.6,0-2.87-0.49-3.78-1.47
			c-0.92-0.98-1.38-2.41-1.38-4.29v-15.31h-4.02v-2.32h4.02v-5.51l2.65-0.9v6.41h5.97v2.32h-5.97v14.96c0,1.34,0.25,2.32,0.75,2.92
			c0.5,0.61,1.22,0.91,2.15,0.91c0.51,0,0.97-0.06,1.39-0.18c0.42-0.12,0.79-0.28,1.13-0.48L237.88,630.2z"/>
		<path class="st8" d="M270.18,607.65l-7.04,22.95h-2.6l-4.9-17c-0.09-0.31-0.16-0.62-0.22-0.93c-0.06-0.31-0.11-0.67-0.15-1.06
			h-0.09c-0.01,0.23-0.06,0.5-0.14,0.81c-0.08,0.31-0.19,0.69-0.34,1.14l-5.4,17.04h-2.56l-6.96-22.95h2.87l5.12,17.94
			c0.09,0.23,0.15,0.51,0.2,0.84c0.04,0.33,0.08,0.7,0.11,1.13h0.2c0.01-0.25,0.05-0.54,0.12-0.88c0.07-0.34,0.16-0.71,0.3-1.12
			l5.62-17.91h2.12l5.03,17.94c0.07,0.25,0.13,0.54,0.19,0.86c0.05,0.33,0.11,0.7,0.16,1.13h0.18c0-0.26,0.03-0.55,0.09-0.88
			c0.06-0.32,0.15-0.69,0.28-1.12l5.16-17.94H270.18z"/>
		<path class="st8" d="M290.88,630.59h-2.62v-4.24h-0.11c-0.74,1.5-1.77,2.68-3.08,3.53c-1.31,0.85-2.79,1.28-4.44,1.28
			c-2.19,0-3.92-0.62-5.21-1.86c-1.28-1.24-1.92-2.82-1.92-4.75c0-2,0.64-3.62,1.91-4.86s3.34-2.06,6.18-2.47l6.67-0.98v-0.66
			c-0.06-2.1-0.55-3.66-1.47-4.67c-0.92-1.01-2.22-1.52-3.92-1.52c-1.31,0-2.54,0.23-3.69,0.7c-1.15,0.47-2.23,1.17-3.25,2.12
			l-1.6-1.66c1.22-1.17,2.54-2.04,3.96-2.61c1.41-0.58,2.97-0.86,4.68-0.86c2.61,0,4.58,0.73,5.91,2.18
			c1.33,1.45,1.99,3.58,1.99,6.4V630.59z M288.25,620.77v-2.25l-6.04,0.85c-2.19,0.31-3.74,0.84-4.65,1.61s-1.37,1.89-1.37,3.38
			c0,1.34,0.43,2.43,1.29,3.26c0.86,0.83,2.02,1.25,3.48,1.25c2.11,0,3.86-0.75,5.23-2.26
			C287.57,625.09,288.25,623.15,288.25,620.77z"/>
		<path class="st8" d="M308.99,609.97c-0.34-0.12-0.66-0.2-0.96-0.26c-0.31-0.06-0.63-0.09-0.98-0.09c-1.91,0-3.44,0.9-4.58,2.7
			c-1.15,1.8-1.72,4.19-1.72,7.16v11.11h-2.62v-22.95h2.62v4.9h0.09c0.51-1.69,1.33-3,2.45-3.92c1.12-0.92,2.46-1.38,4-1.38
			c0.38,0,0.74,0.02,1.09,0.07c0.35,0.04,0.69,0.12,1.03,0.22L308.99,609.97z"/>
		<path class="st8" d="M331.74,619.46h-16.71c0.04,3.18,0.79,5.53,2.24,7.07c1.45,1.53,3.39,2.3,5.81,2.3
			c1.12,0,2.23-0.18,3.31-0.54c1.09-0.36,2.18-0.94,3.27-1.74l1.33,1.9c-1.27,0.93-2.56,1.62-3.87,2.06
			c-1.31,0.44-2.76,0.66-4.35,0.66c-3.08,0-5.59-0.99-7.54-2.97c-1.95-1.98-2.92-5-2.92-9.06c-0.01-3.5,0.94-6.38,2.87-8.65
			c1.93-2.27,4.43-3.4,7.5-3.4c2.9,0,5.14,0.99,6.7,2.97c1.57,1.98,2.35,4.7,2.35,8.16V619.46z M329.02,617.19
			c-0.06-2.46-0.65-4.38-1.78-5.74c-1.13-1.36-2.68-2.04-4.65-2.04c-2.01,0-3.69,0.68-5.02,2.04c-1.33,1.36-2.15,3.28-2.46,5.74
			H329.02z"/>
		<path class="st8" d="M347.94,628.95l1.31-2.12c0.83,0.58,1.73,1.06,2.7,1.43c0.97,0.37,2.04,0.56,3.23,0.56
			c1.78,0,3.11-0.38,4-1.15c0.89-0.77,1.33-1.81,1.33-3.14c0-1.05-0.35-1.92-1.06-2.62c-0.71-0.7-2.06-1.35-4.06-1.95
			c-2.52-0.74-4.27-1.64-5.24-2.7c-0.97-1.06-1.45-2.34-1.45-3.84c0-1.88,0.69-3.41,2.06-4.58s3.19-1.76,5.47-1.76
			c1.09,0,2.16,0.14,3.19,0.42c1.04,0.28,2.08,0.74,3.15,1.38l-1.25,2.08c-0.83-0.5-1.68-0.88-2.54-1.15
			c-0.86-0.27-1.74-0.4-2.65-0.4c-1.55,0-2.75,0.34-3.6,1.01c-0.85,0.67-1.28,1.58-1.28,2.73c0,1.09,0.35,1.94,1.06,2.55
			c0.71,0.61,2.01,1.2,3.9,1.78c2.39,0.74,4.13,1.63,5.23,2.65c1.09,1.02,1.64,2.41,1.64,4.18c0,2.1-0.71,3.77-2.12,5.01
			c-1.41,1.24-3.35,1.86-5.8,1.86c-1.34,0-2.62-0.19-3.83-0.57C350.15,630.21,349.01,629.67,347.94,628.95z"/>
		<path class="st8" d="M378.17,631.16c-3.37,0-6.04-1.09-8.01-3.28c-1.97-2.19-2.95-5.05-2.95-8.6c0-3.82,1.02-6.81,3.07-8.96
			s4.79-3.23,8.24-3.25c3.33,0,5.94,1.06,7.85,3.19s2.87,5.07,2.87,8.84c0,3.6-1,6.51-2.99,8.73S381.57,631.16,378.17,631.16z
			 M378.33,628.82c2.62,0,4.64-0.85,6.05-2.56s2.11-4.08,2.11-7.13c0-3.13-0.7-5.54-2.11-7.22s-3.41-2.52-6-2.52
			c-2.58,0-4.63,0.88-6.16,2.62c-1.52,1.75-2.29,4.17-2.29,7.26c0,2.9,0.75,5.22,2.26,6.95
			C373.7,627.96,375.75,628.82,378.33,628.82z"/>
		<path class="st8" d="M395.3,630.59v-33.16h2.65v33.16H395.3z"/>
		<path class="st8" d="M423.3,630.59h-2.65v-3.98h-0.09c-0.79,1.52-1.79,2.65-3.01,3.41c-1.22,0.76-2.65,1.14-4.3,1.14
			c-2.71,0-4.75-0.84-6.11-2.51c-1.36-1.68-2.04-4.2-2.04-7.57v-13.43h2.67v12.88c0,2.86,0.49,4.95,1.48,6.29
			c0.98,1.33,2.52,2,4.6,2c2.01,0,3.65-0.74,4.91-2.22c1.26-1.48,1.89-3.44,1.89-5.87v-13.08h2.65V630.59z"/>
		<path class="st8" d="M440.88,630.2c-0.54,0.29-1.1,0.5-1.68,0.63c-0.58,0.13-1.25,0.2-1.99,0.2c-1.6,0-2.87-0.49-3.78-1.47
			c-0.92-0.98-1.38-2.41-1.38-4.29v-15.31h-4.02v-2.32h4.02v-5.51l2.65-0.9v6.41h5.97v2.32h-5.97v14.96c0,1.34,0.25,2.32,0.75,2.92
			c0.5,0.61,1.22,0.91,2.16,0.91c0.51,0,0.97-0.06,1.39-0.18c0.42-0.12,0.79-0.28,1.13-0.48L440.88,630.2z"/>
		<path class="st8" d="M447.03,602.51c-0.58,0-1.07-0.2-1.45-0.61c-0.39-0.41-0.58-0.89-0.58-1.44c0-0.58,0.19-1.07,0.58-1.46
			c0.39-0.39,0.87-0.58,1.45-0.58c0.6,0,1.1,0.19,1.51,0.58c0.41,0.39,0.61,0.86,0.61,1.43c0,0.57-0.2,1.06-0.61,1.47
			S447.63,602.51,447.03,602.51z M448.37,630.59h-2.65v-22.95h2.65V630.59z"/>
		<path class="st8" d="M465.65,631.16c-3.37,0-6.04-1.09-8-3.28c-1.97-2.19-2.95-5.05-2.95-8.6c0-3.82,1.02-6.81,3.07-8.96
			s4.79-3.23,8.24-3.25c3.32,0,5.94,1.06,7.85,3.19s2.87,5.07,2.87,8.84c0,3.6-1,6.51-2.99,8.73
			C471.74,630.05,469.04,631.16,465.65,631.16z M465.8,628.82c2.62,0,4.64-0.85,6.05-2.56s2.11-4.08,2.11-7.13
			c0-3.13-0.7-5.54-2.11-7.22s-3.41-2.52-6-2.52c-2.58,0-4.63,0.88-6.16,2.62c-1.52,1.75-2.29,4.17-2.29,7.26
			c0,2.9,0.75,5.22,2.26,6.95C461.17,627.96,463.22,628.82,465.8,628.82z"/>
		<path class="st8" d="M500.91,630.59h-2.62v-13.28c0-2.64-0.48-4.62-1.44-5.94c-0.96-1.32-2.4-1.98-4.31-1.98
			c-2.06,0-3.75,0.77-5.1,2.3s-2.01,3.44-2.01,5.73v13.17h-2.65v-22.95h2.65v4.05h0.09c0.85-1.53,1.91-2.68,3.19-3.46
			c1.28-0.77,2.79-1.16,4.53-1.16c2.49,0,4.4,0.82,5.71,2.46c1.31,1.64,1.97,3.99,1.97,7.05V630.59z"/>
		<path class="st8" d="M506.07,628.95l1.31-2.12c0.83,0.58,1.73,1.06,2.7,1.43c0.97,0.37,2.04,0.56,3.23,0.56
			c1.78,0,3.11-0.38,4-1.15c0.89-0.77,1.33-1.81,1.33-3.14c0-1.05-0.35-1.92-1.06-2.62c-0.71-0.7-2.06-1.35-4.06-1.95
			c-2.52-0.74-4.27-1.64-5.24-2.7c-0.97-1.06-1.45-2.34-1.45-3.84c0-1.88,0.69-3.41,2.06-4.58c1.37-1.17,3.19-1.76,5.47-1.76
			c1.09,0,2.16,0.14,3.19,0.42c1.04,0.28,2.08,0.74,3.15,1.38l-1.25,2.08c-0.83-0.5-1.68-0.88-2.54-1.15
			c-0.86-0.27-1.74-0.4-2.65-0.4c-1.55,0-2.75,0.34-3.6,1.01c-0.85,0.67-1.28,1.58-1.28,2.73c0,1.09,0.35,1.94,1.06,2.55
			c0.71,0.61,2.01,1.2,3.9,1.78c2.39,0.74,4.13,1.63,5.23,2.65c1.09,1.02,1.64,2.41,1.64,4.18c0,2.1-0.71,3.77-2.12,5.01
			c-1.41,1.24-3.35,1.86-5.8,1.86c-1.34,0-2.62-0.19-3.83-0.57C508.27,630.21,507.13,629.67,506.07,628.95z"/>
	</g>
</g>
</svg>
